<?xml version="1.0" encoding="utf-8"?>
<!-- Generator: Adobe Illustrator 14.0.0, SVG Export Plug-In . SVG Version: 6.00 Build 43363)  -->
<!DOCTYPE svg PUBLIC "-//W3C//DTD SVG 1.1//EN" "http://www.w3.org/Graphics/SVG/1.1/DTD/svg11.dtd">
<svg version="1.1" id="Слой_1" xmlns="http://www.w3.org/2000/svg" xmlns:xlink="http://www.w3.org/1999/xlink" x="0px" y="0px"
	 width="155.91px" height="93.54px" viewBox="0 0 155.91 93.54" enable-background="new 0 0 155.91 93.54" xml:space="preserve">
<g>
	<g>
		<g>
			<path fill="#FFFFFF" d="M73.456,32.915c0-3.226,1.419-4.8,4-4.8c1.394,0,2.426,0.464,3.02,0.98l-0.518,1.033
				c-0.541-0.438-1.263-0.75-2.296-0.75c-1.832,0-2.863,1.136-2.863,3.768v1.65h4.438v1.265h-4.438v10.347h-1.343V32.915
				L73.456,32.915z"/>
			<path fill="#FFFFFF" d="M86.667,34.563c3.611,0,6.088,2.556,6.088,6.039c0,3.483-2.477,6.036-6.088,6.036
				c-3.612,0-6.089-2.554-6.089-6.036C80.577,37.118,83.055,34.563,86.667,34.563z M86.667,45.374c2.733,0,4.669-1.959,4.669-4.771
				c0-2.786-1.936-4.774-4.669-4.774c-2.685,0-4.671,1.963-4.671,4.774C81.996,43.39,83.957,45.374,86.667,45.374z"/>
			<path fill="#FFFFFF" d="M96.031,34.796h1.341v1.548c0.646-0.979,1.603-1.753,3.123-1.753c0.954,0,1.419,0.156,1.806,0.438
				l-0.464,1.265c-0.568-0.336-0.878-0.441-1.627-0.441c-1.521,0-2.296,0.956-2.839,1.885v8.669h-1.34V34.796L96.031,34.796z"/>
			<path fill="#FFFFFF" d="M73.095,58.277c1.083-0.672,2.321-1.059,3.689-1.059c3.223,0,4.308,1.701,4.308,4.645v7.199h-1.342
				v-1.781c-0.724,0.979-1.858,1.936-3.974,1.936c-2.141,0-3.586-1.343-3.586-3.458c0-2.322,1.909-3.61,4.411-3.61
				c0.929,0,2.22,0.206,3.149,0.875c0-2.76-0.155-4.541-3.045-4.541c-1.368,0-2.219,0.335-3.251,0.904L73.095,58.277z
				 M79.752,66.121v-1.936c-0.852-0.62-1.832-0.93-3.019-0.93c-1.523,0-3.122,0.723-3.122,2.426c0,1.444,1.134,2.27,2.58,2.27
				C78.151,67.951,79.107,66.971,79.752,66.121z"/>
			<path fill="#FFFFFF" d="M86.82,67.281c-0.258-0.311-0.387-0.724-0.387-1.109c0-0.438,0.154-0.853,0.438-1.16
				c-1.522-0.646-2.426-2.039-2.426-3.691c0-2.32,1.806-4.102,4.594-4.102c1.161,0,2.142,0.336,2.915,0.879h0.025l3.301-0.879v1.264
				l-2.347,0.594c0.438,0.646,0.696,1.421,0.696,2.244c0,2.324-1.832,4.103-4.591,4.103c-0.413,0-0.801-0.025-1.162-0.104
				c-0.18,0.26-0.231,0.542-0.231,0.853c0,0.361,0.103,0.67,0.334,0.929c0.361-0.025,0.697-0.051,1.085-0.051
				c3.38,0,5.804,1.263,5.804,3.716c0,2.4-2.424,3.662-5.804,3.662s-5.806-1.213-5.806-3.662
				C83.26,68.933,84.654,67.746,86.82,67.281z M89.065,73.214c2.708,0,4.437-0.927,4.437-2.449s-1.729-2.505-4.437-2.505
				c-2.684,0-4.438,0.956-4.438,2.505C84.627,72.287,86.382,73.214,89.065,73.214z M89.04,64.211c1.935,0,3.225-1.264,3.225-2.891
				c0-1.626-1.368-2.89-3.225-2.89c-1.884,0-3.226,1.264-3.226,2.89C85.814,62.947,87.131,64.211,89.04,64.211z"/>
			<path fill="#FFFFFF" d="M107.203,67.643c-1.059,1.109-2.734,1.651-4.284,1.651c-3.663,0-6.167-2.374-6.167-6.038
				c0-3.378,2.065-6.037,5.883-6.037c2.994,0,5.264,2.065,5.264,5.236c0,0.441-0.025,0.775-0.076,1.086H98.25
				c0.104,2.785,1.961,4.488,4.747,4.488c1.575,0,2.968-0.594,3.767-1.419L107.203,67.643z M98.172,62.43h8.359
				c-0.053-2.451-1.6-3.947-4.023-3.947C99.926,58.482,98.404,60.16,98.172,62.43z"/>
			<path fill="#FFFFFF" d="M111.098,57.451h1.342v1.625c0.877-1.005,2.529-1.832,4.18-1.832c3.148,0,4.85,1.548,4.85,5.187v6.633
				h-1.341v-6.374c0-2.839-1.238-4.18-3.818-4.18c-1.601,0-3.097,0.853-3.87,1.78v8.773h-1.342V57.451L111.098,57.451z"/>
			<path fill="#FFFFFF" d="M135.015,67.41c-0.981,1.237-2.682,1.884-4.386,1.884c-3.586,0-6.141-2.374-6.141-6.038
				c0-3.378,2.477-6.037,5.779-6.037c1.806,0,3.406,0.387,4.516,1.445l-0.646,1.084c-1.031-0.931-2.32-1.266-3.662-1.266
				c-2.452,0-4.567,2.015-4.567,4.773c0,2.942,2.115,4.773,4.824,4.773c1.497,0,2.813-0.673,3.612-1.599L135.015,67.41z"/>
			<path fill="#FFFFFF" d="M143.143,69.063c-1.703,4.151-2.787,5.16-4.361,5.16c-0.748,0-1.367-0.233-1.986-0.596l0.438-1.031
				c0.438,0.207,0.902,0.389,1.366,0.389c1.188,0,2.039-0.956,3.02-3.303l0.258-0.619l-5.727-11.611h1.598l3.975,8.205l0.825,1.806
				c0.18-0.593,0.413-1.212,0.646-1.858l3.122-8.152h1.522L143.143,69.063z"/>
		</g>
		<g>
			<g>
				<path fill="#FFFFFF" d="M35.917,57.97H16.285v-2.113L34.77,26.863h3.624l-17.88,27.968h15.403V41.962h3.141v12.869h6.222v3.139
					h-6.222v11.177h-3.141V57.97L35.917,57.97z"/>
			</g>
		</g>
		<g>
			<polygon fill="#FFFFFF" points="58.818,87.439 57.717,87.439 57.717,8.309 58.818,8.309 			"/>
		</g>
	</g>
	<polygon fill="#FFFFFF" points="11.995,62.379 7.676,69.044 11.425,69.044 15.745,62.379 	"/>
</g>
</svg>
