<?xml version="1.0" encoding="utf-8"?>
<!-- Generator: Adobe Illustrator 14.0.0, SVG Export Plug-In . SVG Version: 6.00 Build 43363)  -->
<!DOCTYPE svg PUBLIC "-//W3C//DTD SVG 1.1//EN" "http://www.w3.org/Graphics/SVG/1.1/DTD/svg11.dtd">
<svg version="1.1" id="Слой_1" xmlns="http://www.w3.org/2000/svg" xmlns:xlink="http://www.w3.org/1999/xlink" x="0px" y="0px"
	 width="65.2px" height="70.87px" viewBox="0 0 65.2 70.87" enable-background="new 0 0 65.2 70.87" xml:space="preserve">
<path fill="none" stroke="#E11F30" stroke-width="2" d="M60.901,68.177H12.298c-4.321,0-7.824-3.503-7.824-7.823v-49.6
	c0-4.321,3.503-7.823,7.824-7.823h48.604V68.177z"/>
<path fill="none" stroke="#E11F30" stroke-width="2" d="M35.156,19.133c0-1.563,1.267-2.83,2.829-2.83s2.829,1.267,2.829,2.83"/>
<g>
	<path fill="none" stroke="#E11F30" stroke-width="2" d="M46.474,23.599c0-1.571,1.275-2.847,2.848-2.847
		c1.571,0,2.846,1.275,2.846,2.847v-0.205l-0.004,25.108c0.14,4.394-2.833,11.488-2.833,11.488v7.941H31.101V59.99
		c-3.168-3.371-15.941-16.506-15.994-16.922c-0.162-1.295,1.679-1.84,2.591-2.18c2.452-0.911,4.271,1.371,5.888,2.828
		c1.226,1.107,2.452,2.213,3.678,3.32l2.092-1.744l0.209-0.627l-0.14-24.84v0.036c0-1.582,1.284-2.865,2.864-2.865
		c1.582,0,2.866,1.283,2.866,2.865"/>
	<line fill="none" stroke="#E11F30" stroke-width="2" x1="35.156" y1="16.699" x2="35.156" y2="35.146"/>
	<line fill="none" stroke="#E11F30" stroke-width="2" x1="40.814" y1="16.699" x2="40.814" y2="35.146"/>
	<path fill="none" stroke="#E11F30" stroke-width="2" d="M40.814,19.132c0-1.562,1.267-2.829,2.83-2.829
		c1.563,0,2.829,1.34,2.829,2.902v15.958"/>
</g>
<line fill="none" stroke="#E11F30" stroke-width="2" x1="17.993" y1="26.996" x2="24.433" y2="26.996"/>
<line fill="none" stroke="#E11F30" stroke-width="2" x1="17.993" y1="32.976" x2="24.433" y2="32.976"/>
</svg>
