<?xml version="1.0" encoding="utf-8"?>
<!-- Generator: Adobe Illustrator 14.0.0, SVG Export Plug-In . SVG Version: 6.00 Build 43363)  -->
<!DOCTYPE svg PUBLIC "-//W3C//DTD SVG 1.1//EN" "http://www.w3.org/Graphics/SVG/1.1/DTD/svg11.dtd">
<svg version="1.1" id="Слой_1" xmlns="http://www.w3.org/2000/svg" xmlns:xlink="http://www.w3.org/1999/xlink" x="0px" y="0px"
	 width="70.87px" height="42.52px" viewBox="0 0 70.87 42.52" enable-background="new 0 0 70.87 42.52" xml:space="preserve">
<g>
	<path fill="none" stroke="#E11F30" stroke-width="2" d="M35.064,35.373c0.729,0.539,1.336,1.779,1.336,2.757
		c0,1.635-1.326,2.961-2.962,2.961c-0.882,0-1.525-0.347-2.216-0.887"/>
	<line fill="none" stroke="#E11F30" stroke-width="2" x1="12.597" y1="25.919" x2="31.304" y2="40.266"/>
	<path fill="none" stroke="#E11F30" stroke-width="2" d="M31.568,32.514l6.916,5.656c0.882,0.741,2.199,1.34,3.352,0.928
		c1.034-0.371,1.804-1.308,1.965-2.396c0.022-0.146,0.033-0.295,0.033-0.443c0-1.04-0.528-1.958-1.33-2.5"/>
	<line fill="none" stroke="#E11F30" stroke-width="2" x1="35.353" y1="28.322" x2="43.969" y2="34.86"/>
	<path fill="none" stroke="#E11F30" stroke-width="2" d="M39.746,23.877l8.614,6.441c0.643,0.577,1.049,1.417,1.049,2.352
		c0,1.744-1.416,3.16-3.16,3.16c-1.03,0-1.846-0.502-2.649-1.249"/>
	<path fill="none" stroke="#E11F30" stroke-width="2" d="M48.617,30.578c0.544,0.725,2.097,1.59,3.322,1.59
		c1.829,0,3.312-1.482,3.312-3.311c0-1.438-1.053-2.494-2.133-3.291c-0.638-0.471-1.277-0.941-1.917-1.412
		c-2.265-1.669-4.532-3.336-6.802-5c-1.517-1.111-3.017-2.254-4.567-3.314c-2.575-1.759-6.679-5.011-9.519-2.068
		c-1.56,1.616-3.573,4.327-5.971,4.538c-2.492,0.216-3.743-1.811-3.564-3.273c0.294-2.419,1.48-4.743,3.011-6.625
		c2.579-3.171,6.814-6.423,11.108-6.136c2.648,0.176,23.646,8.02,23.646,8.02"/>
	<line fill="none" stroke="#E11F30" stroke-width="2" x1="29.572" y1="3.557" x2="12.931" y2="9.642"/>
	<line fill="none" stroke="#E11F30" stroke-width="2" x1="55.24" y1="28.049" x2="58.544" y2="25.919"/>
</g>
<rect x="1.397" y="4.609" fill="none" stroke="#E11F30" stroke-width="2" width="10.912" height="24.192"/>
<rect x="58.544" y="4.609" fill="none" stroke="#E11F30" stroke-width="2" width="10.912" height="24.192"/>
</svg>
