<?xml version="1.0" encoding="utf-8"?>
<!-- Generator: Adobe Illustrator 14.0.0, SVG Export Plug-In . SVG Version: 6.00 Build 43363)  -->
<!DOCTYPE svg PUBLIC "-//W3C//DTD SVG 1.1//EN" "http://www.w3.org/Graphics/SVG/1.1/DTD/svg11.dtd">
<svg version="1.1" id="Слой_1" xmlns="http://www.w3.org/2000/svg" xmlns:xlink="http://www.w3.org/1999/xlink" x="0px" y="0px"
	 width="141.73px" height="45.35px" viewBox="0 0 141.73 45.35" enable-background="new 0 0 141.73 45.35" xml:space="preserve">
<g>
	<path fill="#A1A3A0" d="M21.712,41.747c-0.463-0.42-0.195-1.329,0.035-1.847c0.142-0.319,0.358-0.551,0.545-0.834
		c2.184-3.33,4.117-6.738,3.973-10.851c-0.073-2.075-0.567-4.618-1.686-6.384c-1.116-1.762-1.047-1.616-1.367-3.359
		c-0.322-1.745,0.521-3.677,0.521-3.677c2.405-10.052-5.326-11.883-7.981-11.895H15.73H15.71C13.055,2.913,5.391,4.744,7.794,14.793
		c0,0,0.841,1.935,0.521,3.678c-0.321,1.745-0.253,1.598-1.367,3.359c-1.12,1.768-1.612,4.311-1.688,6.385
		c-0.146,4.113,1.789,7.521,3.976,10.852c0.187,0.283,0.402,0.515,0.543,0.834c0.231,0.517,0.498,1.427,0.036,1.847
		c-0.219,0.197-0.69,0.45-0.79,0.757c-0.083,0.262-0.037,0.675-0.037,0.675s3.041,0.026,4.399,0c0.381-0.007,0.772-0.005,1.167,0
		c0.321,0.003,0.642,0.006,0.957,0.003c0.352,0.003,0.777,0,1.202-0.003c0.521-0.005,1.041-0.007,1.424,0
		c1.359,0.026,4.467,0,4.467,0s0.046-0.413-0.038-0.675C22.469,42.198,21.929,41.945,21.712,41.747z M15.506,18.842
		c-3.756-0.089-6.729-3.205-6.642-6.963C8.883,11.095,9.041,10.35,9.3,9.653h12.739c0.296,0.792,0.453,1.649,0.433,2.546
		C22.383,15.958,19.265,18.931,15.506,18.842z"/>
	<path fill="#A1A3A0" d="M44.588,31.902c0.146,0,0.453-0.163,0.926-0.488c0.324-0.29,0.655-0.607,0.989-0.949
		c0.333-0.342,0.775-0.802,1.329-1.387c0.26-0.275,0.593-0.674,1-1.193c0.211-0.277,0.739-0.967,1.586-2.069
		c0.846-1.104,1.551-2.029,2.122-2.777c2.195-2.921,3.847-4.523,4.951-4.798l1.147-0.171c0.033,0,0.081,0.009,0.146,0.025
		c0.031,0.081-0.009,0.163-0.124,0.245l-0.686,0.677L47.221,30.243c-1.415,1.464-2.357,2.123-2.829,1.979
		c-0.506-0.149-0.758-0.635-0.758-1.464c0-1.416,1.059-3.352,3.172-5.808l0.854-1.003c1.237-1.428,1.854-2.59,1.854-3.486
		c0-0.227-0.059-0.513-0.171-0.853c-0.064-0.293-0.171-0.515-0.316-0.659c0,0.765-0.228,1.554-0.685,2.365
		c-0.454,0.814-1.09,1.626-1.902,2.439c-1.513,1.481-3.139,2.544-4.88,3.195c-0.438,0.163-0.874,0.287-1.306,0.368
		c-0.431,0.08-0.882,0.123-1.354,0.123c-0.879,0-1.548-0.166-2.012-0.491c-0.466-0.322-0.793-0.703-0.988-1.133
		c-0.196-0.431-0.293-0.932-0.293-1.501c0-1.058,0.337-2.028,1.012-2.916c0.676-0.887,1.68-1.72,3.013-2.502
		c1.675-0.958,3.538-1.437,5.588-1.437c1.381,0,2.528,0.267,3.439,0.803c0-0.535-0.187-0.998-0.561-1.39
		c-0.376-0.389-0.854-0.634-1.439-0.732c-0.115-0.014-0.217-0.024-0.306-0.024c-0.091,0-0.151,0-0.184,0
		c-0.276,0-0.536,0.041-0.779,0.124c-0.065,0.015-0.115-0.015-0.147-0.099c-0.018-0.033-0.021-0.06-0.013-0.084
		c0.008-0.025,0.021-0.045,0.037-0.061c0.243-0.099,0.554-0.146,0.928-0.146c1.741,0,2.69,0.887,2.853,2.657
		c0.849,0.731,1.271,1.765,1.271,3.095c0,1.627-1.037,3.62-3.106,5.976l-2.646,3.138c-0.216,0.308-0.324,0.58-0.324,0.824
		C44.244,31.782,44.358,31.902,44.588,31.902z M39.512,19.342c-1.155,0.77-2.033,1.563-2.635,2.385
		c-0.602,0.823-0.901,1.684-0.901,2.582c0,0.52,0.079,0.975,0.242,1.355c0.164,0.383,0.448,0.715,0.854,0.992
		c0.408,0.311,1.002,0.463,1.782,0.463c2.374,0,4.772-1.15,7.196-3.449c1.741-1.662,2.612-3.327,2.612-4.989
		c-0.699-0.604-1.856-0.906-3.466-0.906C42.952,17.776,41.058,18.3,39.512,19.342z M53.1,30.902c0.456,0,1.041-0.252,1.758-0.756
		c1.056-0.715,2.171-1.814,3.341-3.293l0.489-0.049c-2.407,3.041-4.408,4.561-6.003,4.561c-0.926,0-1.391-0.545-1.391-1.633
		c0-0.78,0.293-1.537,0.878-2.27c0.488-0.633,1.139-1.139,1.952-1.51c0.521-0.26,0.976-0.391,1.367-0.391
		c0.13,0,0.325,0.015,0.584,0.047c0.261,0.033,0.441,0.234,0.537,0.608c0.05,0.147,0.074,0.278,0.074,0.392
		c0,0.701-0.626,1.268-1.879,1.708c-0.13,0.049-0.382,0.11-0.756,0.184c-0.374,0.075-0.626,0.117-0.755,0.136
		c-0.507,0.699-0.758,1.293-0.758,1.779C52.539,30.74,52.727,30.902,53.1,30.902z M53.467,28.268
		c0.311,0.064,0.821-0.121,1.537-0.563c0.715-0.439,1.074-0.909,1.074-1.414c0-0.112-0.049-0.187-0.146-0.22
		c-0.439-0.082-0.953,0.213-1.537,0.877C53.988,27.438,53.679,27.877,53.467,28.268z M59.176,25.875
		c0.292-0.193,0.627-0.292,1-0.292c0.357,0,0.663,0.086,0.915,0.261c0.251,0.171,0.378,0.403,0.378,0.701
		c0,0.41-0.498,1.231-1.491,2.462c-0.698,0.887-1.048,1.468-1.048,1.747c0,0.083,0.035,0.148,0.1,0.199h0.146
		c0.452,0,1.284-0.594,2.487-1.779c0.879-0.889,1.594-1.726,2.146-2.518h0.488c-0.505,0.651-0.927,1.172-1.269,1.563
		c-0.389,0.455-0.837,0.917-1.342,1.391c-0.618,0.601-1.179,1.045-1.684,1.33c-0.504,0.283-0.948,0.426-1.343,0.426
		c-0.682,0-1.022-0.397-1.022-1.195c0-0.684,0.506-1.602,1.52-2.756c0.517-0.504,0.773-0.886,0.773-1.146
		c0-0.113-0.047-0.173-0.143-0.173c-0.094,0-0.298,0.123-0.613,0.368l-0.66,0.587l-0.463-0.123l0.22-0.269
		c-0.121,0.032-0.203,0.047-0.251,0.047c-0.209,0-0.337-0.11-0.383-0.336c-0.064-0.253,0.073-0.5,0.415-0.74
		c0.212-0.143,0.438-0.197,0.684-0.165C59.029,25.464,59.176,25.6,59.176,25.875z M57.955,26.318c0,0.031,0.059,0.063,0.171,0.094
		c0.18,0,0.358-0.079,0.535-0.243c0.115-0.098,0.173-0.195,0.173-0.292s-0.058-0.145-0.173-0.145c-0.16,0-0.326,0.069-0.499,0.207
		C57.992,26.074,57.922,26.203,57.955,26.318z M67.568,26.243l0.342-0.416h1.975l-2.927,4.343c-0.178,0.259-0.267,0.462-0.267,0.609
		c0,0.081,0.049,0.138,0.145,0.174c0.895,0.112,2.553-1.311,4.979-4.271h0.486l-0.779,0.932c-0.326,0.407-0.684,0.808-1.073,1.202
		c-0.31,0.31-0.676,0.662-1.1,1.052c-1.22,1.08-2.138,1.579-2.756,1.498c-0.602-0.101-0.902-0.452-0.902-1.064l0.074-0.594
		c-0.261,0.258-0.5,0.5-0.721,0.719c-0.22,0.218-0.377,0.36-0.475,0.427c-0.439,0.342-0.83,0.511-1.171,0.511
		c-0.748,0-1.123-0.502-1.123-1.511c0-1.041,0.407-1.991,1.221-2.854c0.927-0.943,1.934-1.415,3.025-1.415
		C66.975,25.583,67.324,25.802,67.568,26.243z M63.517,30.561c0,0.197,0.084,0.293,0.243,0.293c0.474,0,1.213-0.659,2.22-1.977
		c0.181-0.195,0.467-0.633,0.855-1.317c0.195-0.311,0.317-0.644,0.365-1.001c0.05-0.275-0.023-0.43-0.219-0.465
		c-0.601-0.111-1.329,0.44-2.184,1.657C63.946,28.977,63.517,29.911,63.517,30.561z M89.378,25.802
		c1.155,0.746,1.731,1.654,1.731,2.723c0,1.021-0.487,1.839-1.463,2.453c-0.863,0.532-1.83,0.803-2.902,0.803
		c-0.604,0-1.36-0.102-2.27-0.306l-1.586-0.378c-0.099,0.031-0.313,0.089-0.64,0.171c-0.325,0.08-0.66,0.156-1.006,0.229
		c-0.345,0.073-0.66,0.11-0.954,0.11c-0.263,0-0.563-0.041-0.898-0.122c-0.335-0.082-0.545-0.235-0.625-0.465v-0.122
		c0-0.422,0.464-0.635,1.389-0.635c0.309,0,0.521,0.012,0.634,0.028c0.57,0.139,1.1,0.253,1.586,0.339
		c0.476-0.099,1.068-0.636,1.778-1.615c0.473-0.635,0.854-1.231,1.133-1.783l1.614-3.208c0.73-1.449,1.47-2.556,2.217-3.32
		c0.959-1.012,2.095-1.655,3.411-1.931c0.438,0,0.672,0.041,0.707,0.122c-0.75,0.325-1.271,0.676-1.563,1.049
		c-0.113,0.146-0.301,0.447-0.563,0.903c-0.196,0.324-0.38,0.651-0.561,0.976l-1.902,3.538c0.732,0,1.554-0.233,2.463-0.707
		c0.815-0.408,1.541-1.019,2.184-1.844c0.644-0.82,0.964-1.664,0.964-2.523c0-0.895-0.472-1.593-1.416-2.1
		c-0.584-0.308-1.106-0.462-1.561-0.462c-0.896,0-1.537,0.011-1.929,0.035c-0.389,0.025-0.861,0.103-1.415,0.233
		c0.211,0.373,0.317,0.861,0.317,1.463c0,1.689-0.666,3.352-2.002,4.976c-1.737,2.101-3.423,3.148-5.047,3.148
		c-0.75,0-1.343-0.188-1.781-0.563c-0.439-0.374-0.658-0.901-0.658-1.586c0-1.17,0.494-2.372,1.486-3.609
		c1.708-2.147,4.018-3.504,6.93-4.075c-0.631-0.391-1.45-0.586-2.457-0.586c-1.979,0-3.618,0.677-4.916,2.026
		c-0.843,0.894-1.429,1.983-1.751,3.268c-0.098,0.36-0.162,0.806-0.196,1.343c-0.033,0.537-0.047,1.106-0.047,1.707
		c0,0.131-0.068,0.198-0.204,0.198c-0.106-0.067-0.161-0.123-0.161-0.172v-2.05c0-1.74,0.728-3.293,2.183-4.658
		c1.454-1.365,3.112-2.05,4.966-2.05c1.218,0,2.236,0.286,3.049,0.854c1.009-0.213,1.741-0.318,2.196-0.318
		c1.479,0,2.587,0.116,3.318,0.344c1.042,0.311,1.838,0.959,2.391,1.939c0.195,0.375,0.291,0.825,0.291,1.35
		c0,0.77-0.195,1.439-0.587,2.012c-0.666,0.932-1.633,1.637-2.901,2.109C91.866,25.247,90.875,25.492,89.378,25.802z M80.311,22.461
		c-0.754,1.139-1.13,2.172-1.13,3.1c0,0.651,0.268,1.111,0.806,1.387c0.309,0.181,0.708,0.27,1.196,0.27
		c0.195,0,0.349-0.007,0.464-0.022c1.332-0.196,2.683-1.106,4.05-2.733c0.698-0.829,1.225-1.616,1.572-2.366
		c0.351-0.749,0.524-1.456,0.524-2.122c0-0.879-0.106-1.506-0.319-1.878C84.344,18.681,81.955,20.137,80.311,22.461z M80.312,30.584
		c-0.722,0-1.081,0.111-1.081,0.329c0,0.136,0.164,0.237,0.491,0.303c0.328,0.067,0.575,0.094,0.738,0.075
		c0.214,0,0.442-0.033,0.691-0.101c0.247-0.069,0.517-0.162,0.81-0.28C81.699,30.83,81.15,30.721,80.312,30.584z M83.669,30.83
		c0.488,0.146,1.022,0.219,1.61,0.219c1.285,0,2.268-0.27,2.951-0.808c1.01-0.786,1.513-1.733,1.513-2.845
		c0-0.392-0.135-0.756-0.402-1.09c-0.27-0.337-0.582-0.503-0.94-0.503C86.874,28.439,85.296,30.113,83.669,30.83z M96.649,25.827
		l-2.682,3.858c-0.244,0.34-0.368,0.592-0.368,0.754c0,0.146,0.073,0.219,0.219,0.219c0.261,0,0.795-0.415,1.609-1.243
		c0.439-0.457,0.829-0.912,1.171-1.369l1.729-2.221l1.616,0.002l-2.953,4.394c0.666-0.249,2.131-1.395,4.392-3.442h0.415
		c-0.294,0.312-0.619,0.628-0.977,0.953s-0.773,0.676-1.244,1.048c-0.555,0.44-1.073,0.822-1.563,1.145
		c-0.487,0.323-0.913,0.568-1.274,0.732l-1.599,2.348c-0.718,1.046-1.507,2.025-2.369,2.941c-1.287,1.338-2.311,1.967-3.076,1.887
		c-0.309,0-0.504-0.169-0.585-0.514c-0.015-0.066-0.022-0.166-0.022-0.292c0-0.849,0.699-1.94,2.097-3.278
		c1.284-1.239,2.454-2.111,3.513-2.617l1.146-1.715c-0.617,0.636-1.072,1.066-1.365,1.294c-0.554,0.453-1.009,0.642-1.367,0.561
		c-0.439-0.132-0.657-0.439-0.657-0.928c0-0.974,0.828-2.478,2.487-4.513h1.709V25.827z M90.721,34.672
		c-0.765,0.864-1.212,1.617-1.343,2.254c0,0.409,0.09,0.62,0.269,0.638c0.536,0.082,2.139-1.921,4.806-6.002
		C93.314,32.146,92.069,33.186,90.721,34.672z M103.275,25.17c0,0.243-0.15,0.496-0.455,0.757c0.455,0.552,0.682,1.227,0.682,2.021
		c0,0.634-0.331,1.386-0.997,2.245c0.536-0.229,1.284-0.789,2.243-1.685c0.813-0.766,1.465-1.445,1.951-2.05l0.464-0.099
		c-1.414,1.708-2.731,2.97-3.951,3.783c-1.221,0.813-2.351,1.219-3.394,1.219c-0.485,0-0.836-0.194-1.049-0.587
		c-0.047-0.127-0.073-0.257-0.073-0.388c0-0.261,0.097-0.503,0.293-0.734c0.196-0.226,0.43-0.339,0.708-0.339
		c0.261-0.017,0.455,0.041,0.586,0.169c0.114,0.212,0.138,0.382,0.071,0.514c-0.112,0.355-0.511,0.577-1.194,0.657l0.147,0.244
		h0.243c0.441,0,0.912-0.324,1.415-0.977c0.438-0.534,0.739-1.064,0.902-1.586c0.195-0.471,0.294-0.894,0.294-1.269l-0.074-0.563
		l-0.366,0.172l-0.124-0.172c-0.014-0.079,0.06-0.228,0.229-0.439l0.336-0.464c0.221-0.405,0.422-0.633,0.609-0.682
		C103.04,24.845,103.208,24.924,103.275,25.17z M111.871,21.117l-1.674,2.473l1.674-0.006v0.39l-1.967,0.005l-3.767,5.605
		c-0.293,0.441-0.439,0.757-0.439,0.952c0,0.229,0.124,0.342,0.366,0.342c0.472,0,1.203-0.495,2.196-1.486
		c0.829-0.767,1.626-1.66,2.392-2.687l0.464-0.047c-0.361,0.506-0.763,1.006-1.208,1.502c-0.448,0.496-0.915,0.973-1.402,1.425
		c-0.604,0.587-1.155,1.031-1.662,1.332c-0.502,0.3-0.908,0.449-1.217,0.449c-0.603,0-0.902-0.355-0.902-1.074
		c0-0.813,0.584-2.114,1.752-3.906l1.579-2.419l-1.479,0.007v-0.39l1.739,0.002l1.729-2.467L111.871,21.117z M111.336,25.875
		c0.292-0.193,0.625-0.292,0.998-0.292c0.359,0,0.663,0.086,0.914,0.261c0.254,0.171,0.379,0.403,0.379,0.701
		c0,0.41-0.496,1.231-1.491,2.462c-0.696,0.887-1.045,1.468-1.045,1.747c0,0.083,0.032,0.148,0.098,0.199h0.147
		c0.454,0,1.284-0.594,2.487-1.779c0.877-0.889,1.594-1.726,2.146-2.518h0.488c-0.505,0.651-0.929,1.172-1.268,1.563
		c-0.391,0.455-0.839,0.917-1.343,1.391c-0.619,0.601-1.179,1.045-1.684,1.33c-0.503,0.283-0.952,0.426-1.343,0.426
		c-0.685,0-1.021-0.397-1.021-1.195c0-0.687,0.504-1.602,1.52-2.756c0.515-0.505,0.771-0.886,0.771-1.146
		c0-0.115-0.047-0.174-0.141-0.174c-0.095,0-0.301,0.123-0.613,0.369l-0.66,0.584l-0.464-0.12l0.22-0.269
		c-0.118,0.032-0.203,0.047-0.247,0.047c-0.213,0-0.341-0.111-0.386-0.336c-0.065-0.255,0.073-0.5,0.413-0.741
		c0.213-0.143,0.44-0.197,0.684-0.167C111.188,25.464,111.336,25.6,111.336,25.875z M110.115,26.318
		c0,0.031,0.057,0.063,0.172,0.094c0.178,0,0.354-0.079,0.533-0.243c0.115-0.098,0.169-0.195,0.169-0.292s-0.054-0.145-0.169-0.145
		c-0.163,0-0.33,0.069-0.501,0.207C110.152,26.074,110.082,26.203,110.115,26.318z M119.729,27.9
		c0.064,0.017,0.17,0.025,0.315,0.025c0.686,0,1.309-0.38,1.878-1.147l0.244,0.148c-0.652,0.876-1.371,1.317-2.153,1.317h-0.333
		c-0.329,0.758-0.83,1.426-1.503,2.008c-0.805,0.742-1.625,1.113-2.463,1.113c-0.901,0-1.354-0.504-1.354-1.512
		c0-0.667,0.212-1.351,0.635-2.051c0.423-0.651,0.928-1.163,1.513-1.535c0.65-0.456,1.302-0.685,1.951-0.685
		c0.439,0,0.726,0.163,0.854,0.487c0.065,0.033,0.227,0.145,0.488,0.342c0.112,0.132,0.171,0.312,0.171,0.535
		C119.972,27.243,119.889,27.56,119.729,27.9z M115.922,30.805c0.066,0.098,0.246,0.131,0.54,0.098
		c0.572-0.179,1.139-0.549,1.693-1.115c0.493-0.484,0.896-1.036,1.202-1.649c-0.454-0.228-0.683-0.559-0.683-0.984
		c0-0.313,0.149-0.593,0.45-0.839c-0.696,0.278-1.346,0.781-1.945,1.514c-0.305,0.375-0.614,0.836-0.922,1.391
		c-0.309,0.552-0.463,0.967-0.463,1.242C115.799,30.609,115.84,30.724,115.922,30.805z M119.477,27.829
		c0.136-0.375,0.203-0.69,0.203-0.952c0-0.276-0.105-0.432-0.32-0.465c-0.209,0.181-0.316,0.424-0.316,0.732
		C119.045,27.52,119.189,27.745,119.477,27.829z M126.796,25.365c0.23,0,0.377,0.131,0.444,0.389v0.22c0,0.358-0.333,0.87-1,1.538
		c0.18,0.13,0.398,0.193,0.658,0.193c0.568,0,1.008-0.225,1.317-0.682L128.631,27c-0.438,0.649-1.016,0.974-1.732,0.974
		c-0.275,0-0.586-0.063-0.929-0.195l-0.365,0.44c-0.602,0.668-1.252,1.277-1.951,1.83c-1.025,0.878-1.847,1.316-2.466,1.316
		c-0.536,0-0.806-0.341-0.806-1.023c0-1.188,0.77-2.692,2.307-4.515h1.914c-1.966,2.586-2.951,4.139-2.951,4.661
		c0,0.146,0.072,0.222,0.22,0.222c0.373,0,1.141-0.538,2.292-1.611l1.537-1.537c-0.129-0.228-0.193-0.503-0.193-0.83
		c0-0.601,0.23-1.032,0.692-1.293C126.335,25.355,126.532,25.331,126.796,25.365z M125.997,27.243
		c0.536-0.529,0.806-0.953,0.806-1.274c0-0.19-0.099-0.287-0.294-0.287s-0.35,0.128-0.465,0.383
		c-0.112,0.256-0.169,0.479-0.169,0.673C125.875,26.947,125.914,27.115,125.997,27.243z M131.998,26.243l0.341-0.416h1.978
		l-2.928,4.343c-0.18,0.259-0.269,0.462-0.269,0.609c0,0.081,0.048,0.138,0.148,0.174c0.891,0.112,2.552-1.311,4.974-4.271h0.489
		l-0.779,0.932c-0.324,0.407-0.685,0.808-1.076,1.202c-0.308,0.31-0.676,0.662-1.096,1.052c-1.221,1.08-2.141,1.579-2.758,1.498
		c-0.601-0.101-0.9-0.452-0.9-1.064l0.073-0.594c-0.26,0.258-0.498,0.5-0.72,0.719c-0.22,0.218-0.381,0.36-0.476,0.427
		c-0.438,0.342-0.828,0.511-1.17,0.511c-0.747,0-1.122-0.502-1.122-1.511c0-1.041,0.406-1.991,1.221-2.854
		c0.924-0.943,1.934-1.415,3.024-1.415C131.404,25.583,131.755,25.802,131.998,26.243z M127.948,30.561
		c0,0.197,0.081,0.293,0.245,0.293c0.472,0,1.211-0.659,2.22-1.977c0.176-0.195,0.464-0.633,0.855-1.317
		c0.192-0.311,0.316-0.644,0.362-1.001c0.051-0.275-0.022-0.43-0.219-0.465c-0.602-0.111-1.328,0.44-2.183,1.657
		C128.375,28.977,127.948,29.911,127.948,30.561z"/>
</g>
</svg>
